<svg xmlns="http://www.w3.org/2000/svg" xmlns:xlink="http://www.w3.org/1999/xlink" aria-hidden="true" role="img" class="iconify iconify--logos" width="32" height="32" preserveAspectRatio="xMidYMid meet" viewBox="0 0 256 228"><path fill="#00D8FF" d="M210.483 73.824a171.49 171.49 0 0 0-8.24-2.597c.465-1.9.893-3.777 1.273-5.621c6.238-30.281 2.16-54.676-11.769-62.708c-13.355-7.7-35.196.329-57.254 19.526a171.23 171.23 0 0 0-6.375 5.87a155.866 155.866 0 0 0-4.241 4.65a171.518 171.518 0 0 0-3.796-4.65a155.866 155.866 0 0 0-4.241-4.65a171.23 171.23 0 0 0-6.375-5.87C100.759 3.829 77.587-4.822 64.233 3.21C50.298 11.243 46.22 35.638 52.458 65.918a170.974 170.974 0 0 0 1.273 5.621a171.49 171.49 0 0 0-8.24 2.597C33.5 80.882 24 96.867 24 113.668c0 16.8 9.5 32.785 21.491 39.844a171.49 171.49 0 0 0 8.24 2.597a170.974 170.974 0 0 0-1.273 5.621c-6.238 30.281-2.16 54.676 11.769 62.708c13.355 7.7 35.196-.329 57.254-19.526a171.23 171.23 0 0 0 6.375-5.87a155.866 155.866 0 0 0 4.241-4.65a171.518 171.518 0 0 0 3.796 4.65a155.866 155.866 0 0 0 4.241 4.65a171.23 171.23 0 0 0 6.375 5.87c22.059 19.197 43.9 27.226 57.254 19.526c13.93-8.032 18.007-32.427 11.769-62.708a170.974 170.974 0 0 0-1.273-5.621a171.49 171.49 0 0 0 8.24-2.597C222.5 146.453 232 130.468 232 113.668c0-16.8-9.5-32.785-21.491-39.844ZM128 174.668c-33.137 0-60-27.863-60-60s26.863-60 60-60s60 27.863 60 60s-26.863 60-60 60Z"></path><path fill="#00D8FF" d="M128 88.668c-14.359 0-26 11.641-26 26s11.641 26 26 26s26-11.641 26-26s-11.641-26-26-26Zm0 40c-7.732 0-14-6.268-14-14s6.268-14 14-14s14 6.268 14 14s-6.268 14-14 14Z"></path><path fill="#00D8FF" d="M128 118.668a4 4 0 0 1 0-8a4 4 0 0 1 0 8Z"></path></svg> 